<?xml version="1.0" encoding="UTF-8" standalone="no"?>
<!DOCTYPE svg PUBLIC "-//W3C//DTD SVG 1.1//EN" "http://www.w3.org/Graphics/SVG/1.1/DTD/svg11.dtd">
<svg width="100%" height="100%" viewBox="0 0 11812 11812" version="1.1" xmlns="http://www.w3.org/2000/svg" xmlns:xlink="http://www.w3.org/1999/xlink" xml:space="preserve" xmlns:serif="http://www.serif.com/" style="fill-rule:evenodd;clip-rule:evenodd;stroke-linejoin:round;stroke-miterlimit:2;">
    <rect id="ENLIT-COMBO-DARK" serif:id="ENLIT COMBO DARK" x="0" y="0" width="11811.024" height="11811.024" style="fill:rgb(240,240,240);"/>
    <g id="ENLIT-COMBO-DARK1" serif:id="ENLIT COMBO DARK">
        <g id="ENLIT-BOOK-LOGO-DARK" serif:id="ENLIT BOOK LOGO DARK" transform="matrix(11.696013,0,0,11.696013,-2939.91642,1028.001504)">
            <g id="ghostPAGES" transform="matrix(0.8,0,0,0.8,106.422728,83.404667)">
                <path d="M465,590C409.51,554.023 317.964,534.449 274.364,540.874L273.14,244.047C336.927,245.026 400.713,257.947 464.5,287.5L464.8,438.8L465,590Z" style="fill:rgb(32,32,32);fill-opacity:0.5;fill-rule:nonzero;"/>
                <g transform="matrix(1,0,0,1,0,1)">
                    <path d="M429.398,573.68C337.322,556.371 314.686,560.036 250.181,566.822L249.966,288.967L270.033,289.006L269.988,544.073C283.072,539.694 372.575,544.428 429.398,573.68Z" style="fill:rgb(32,32,32);fill-opacity:0.5;fill-rule:nonzero;"/>
                </g>
            </g>
            <g id="E-L-logo" serif:id="E&amp;L logo" transform="matrix(0.8,0,0,0.8,106.422728,76.952806)">
                <g transform="matrix(1,0,0,1,-1,0)">
                    <path d="M535.5,552.5L535.585,512L725,513.3L725,549.5L535.5,552.5Z" style="fill:rgb(83,74,183);fill-rule:nonzero;"/>
                </g>
                <path d="M475.028,590L475.089,288.556L494.905,284.939L494.992,567.061C494.992,567.061 585,560.9 630.5,560.3C671.5,559.8 748,563.3 748,563.3L748,267.7C748,267.7 596.37,277.189 536.1,288C536.1,288 535,330.7 534.8,420.5L534.5,552.5L520.7,553.4C513.1,553.8 506.7,554 506.5,553.9C506.3,553.7 505.8,492.7 505.4,418.5L504.96,283.053C586.394,265.765 723.224,260.734 754.883,260.176L754.708,574.68C749.962,574.68 653.012,572.039 598,576C553.301,579.219 475.028,590 475.028,590Z" style="fill:rgb(32,32,32);fill-rule:nonzero;"/>
                <g transform="matrix(1,0,0,1,0,76)">
                    <path d="M581,363.2L581,355.2L589.8,354.6C614.8,352.8 682.1,350 699.3,350L710,350L710,358L700.3,358C679.5,358 608.1,361 588.3,362.6L581,363.2Z" style="fill:rgb(32,32,32);fill-rule:nonzero;"/>
                </g>
                <path d="M581,363.2L581,355.2L589.8,354.6C614.8,352.8 682.1,350 699.3,350L710,350L710,358L700.3,358C679.5,358 608.1,361 588.3,362.6L581,363.2Z" style="fill:rgb(32,32,32);fill-rule:nonzero;"/>
            </g>
            <g id="labe-" serif:id="labe;" transform="matrix(0.127604,0,0,0.127604,-150.029501,-338.598867)">
                <g>
                    <path d="M7171.82,5584.319L7171.82,4725.334L7792.913,4725.334L7792.913,4826.701L7285.491,4826.701L7285.491,5089.787L7760.687,5089.787L7760.687,5190.569L7285.491,5190.569L7285.491,5482.951L7812.835,5482.951L7812.835,5584.319L7171.82,5584.319Z" style="fill:rgb(32,32,32);fill-rule:nonzero;"/>
                    <path d="M7956.39,5584.319L7956.39,4962.053L8051.312,4962.053L8051.312,5050.53C8097.015,4982.17 8163.031,4947.99 8249.359,4947.99C8286.859,4947.99 8321.331,4954.729 8352.777,4968.205C8384.222,4981.682 8407.757,4999.358 8423.382,5021.233C8439.007,5043.108 8449.945,5069.084 8456.195,5099.162C8460.101,5118.694 8462.054,5152.873 8462.054,5201.701L8462.054,5584.319L8356.585,5584.319L8356.585,5205.803C8356.585,5162.834 8352.484,5130.705 8344.281,5109.416C8336.077,5088.127 8321.527,5071.135 8300.628,5058.44C8279.73,5045.744 8255.218,5039.397 8227.093,5039.397C8182.171,5039.397 8143.402,5053.655 8110.784,5082.17C8078.167,5110.686 8061.859,5164.787 8061.859,5244.475L8061.859,5584.319L7956.39,5584.319Z" style="fill:rgb(32,32,32);fill-rule:nonzero;"/>
                    <path d="M8632.562,5584.319L8632.562,4725.334L8746.234,4725.334L8746.234,5482.951L9169.281,5482.951L9169.281,5584.319L8632.562,5584.319Z" style="fill:rgb(32,32,32);fill-rule:nonzero;"/>
                    <path d="M9291.741,4846.623L9291.741,4725.334L9397.21,4725.334L9397.21,4846.623L9291.741,4846.623ZM9291.741,5584.319L9291.741,4962.053L9397.21,4962.053L9397.21,5584.319L9291.741,5584.319Z" style="fill:rgb(32,32,32);fill-rule:nonzero;"/>
                    <path d="M9788.031,5489.983L9803.265,5583.147C9773.577,5589.397 9747.015,5592.522 9723.577,5592.522C9685.296,5592.522 9655.609,5586.467 9634.515,5574.358C9613.421,5562.248 9598.577,5546.33 9589.984,5526.604C9581.39,5506.877 9577.093,5465.373 9577.093,5402.092L9577.093,5044.084L9499.749,5044.084L9499.749,4962.053L9577.093,4962.053L9577.093,4807.951L9681.976,4744.67L9681.976,4962.053L9788.031,4962.053L9788.031,5044.084L9681.976,5044.084L9681.976,5407.951C9681.976,5438.03 9683.831,5457.365 9687.542,5465.959C9691.253,5474.553 9697.308,5481.389 9705.706,5486.467C9714.105,5491.545 9726.116,5494.084 9741.741,5494.084C9753.46,5494.084 9768.89,5492.717 9788.031,5489.983Z" style="fill:rgb(32,32,32);fill-rule:nonzero;"/>
                </g>
                <g transform="matrix(1,0,0,1,0,1499)">
                    <path d="M7108.538,5042.815L7108.538,4756.487L7315.57,4756.487L7315.57,4790.276L7146.429,4790.276L7146.429,4877.971L7304.827,4877.971L7304.827,4911.565L7146.429,4911.565L7146.429,5009.026L7322.21,5009.026L7322.21,5042.815L7108.538,5042.815Z" style="fill:rgb(32,32,32);fill-rule:nonzero;"/>
                    <path d="M7370.062,5042.815L7370.062,4835.393L7401.702,4835.393L7401.702,4864.885C7416.937,4842.099 7438.942,4830.705 7467.718,4830.705C7480.218,4830.705 7491.709,4832.951 7502.191,4837.444C7512.672,4841.936 7520.518,4847.828 7525.726,4855.119C7530.934,4862.411 7534.58,4871.07 7536.663,4881.096C7537.965,4887.606 7538.616,4899 7538.616,4915.276L7538.616,5042.815L7503.46,5042.815L7503.46,4916.643C7503.46,4902.32 7502.093,4891.61 7499.359,4884.514C7496.624,4877.418 7491.774,4871.754 7484.808,4867.522C7477.842,4863.29 7469.671,4861.174 7460.296,4861.174C7445.322,4861.174 7432.399,4865.927 7421.527,4875.432C7410.654,4884.937 7405.218,4902.971 7405.218,4929.533L7405.218,5042.815L7370.062,5042.815Z" style="fill:rgb(32,32,32);fill-rule:nonzero;"/>
                    <path d="M7586.077,5060.002L7620.257,5065.08C7621.689,5075.627 7625.661,5083.309 7632.171,5088.127C7640.895,5094.638 7652.809,5097.893 7667.913,5097.893C7684.189,5097.893 7696.755,5094.638 7705.609,5088.127C7714.463,5081.617 7720.452,5072.502 7723.577,5060.783C7725.4,5053.622 7726.247,5038.583 7726.116,5015.666C7710.752,5033.765 7691.611,5042.815 7668.695,5042.815C7640.179,5042.815 7618.109,5032.528 7602.484,5011.955C7586.859,4991.382 7579.046,4966.708 7579.046,4937.932C7579.046,4918.14 7582.627,4899.879 7589.788,4883.147C7596.95,4866.415 7607.334,4853.492 7620.941,4844.377C7634.547,4835.263 7650.531,4830.705 7668.89,4830.705C7693.369,4830.705 7713.551,4840.601 7729.437,4860.393L7729.437,4835.393L7761.859,4835.393L7761.859,5014.69C7761.859,5046.981 7758.571,5069.865 7751.995,5083.342C7745.42,5096.819 7735.003,5107.463 7720.745,5115.276C7706.488,5123.088 7688.942,5126.994 7668.109,5126.994C7643.369,5126.994 7623.382,5121.428 7608.148,5110.295C7592.913,5099.162 7585.557,5082.398 7586.077,5060.002ZM7615.179,4935.393C7615.179,4962.606 7620.583,4982.463 7631.39,4994.963C7642.197,5007.463 7655.739,5013.713 7672.015,5013.713C7688.161,5013.713 7701.702,5007.496 7712.64,4995.061C7723.577,4982.626 7729.046,4963.127 7729.046,4936.565C7729.046,4911.174 7723.415,4892.033 7712.152,4879.143C7700.889,4866.252 7687.314,4859.807 7671.429,4859.807C7655.804,4859.807 7642.523,4866.155 7631.585,4878.85C7620.648,4891.545 7615.179,4910.393 7615.179,4935.393Z" style="fill:rgb(32,32,32);fill-rule:nonzero;"/>
                    <rect x="7814.202" y="4756.487" width="35.156" height="286.328" style="fill:rgb(32,32,32);fill-rule:nonzero;"/>
                    <path d="M7904.046,4796.916L7904.046,4756.487L7939.202,4756.487L7939.202,4796.916L7904.046,4796.916ZM7904.046,5042.815L7904.046,4835.393L7939.202,4835.393L7939.202,5042.815L7904.046,5042.815Z" style="fill:rgb(32,32,32);fill-rule:nonzero;"/>
                    <path d="M7978.656,4980.901L8013.421,4975.432C8015.374,4989.364 8020.811,5000.041 8029.73,5007.463C8038.649,5014.885 8051.116,5018.596 8067.132,5018.596C8083.278,5018.596 8095.257,5015.308 8103.07,5008.733C8110.882,5002.157 8114.788,4994.442 8114.788,4985.588C8114.788,4977.645 8111.338,4971.395 8104.437,4966.838C8099.619,4963.713 8087.64,4959.742 8068.499,4954.924C8042.718,4948.414 8024.847,4942.782 8014.886,4938.03C8004.925,4933.277 7997.373,4926.701 7992.23,4918.303C7987.087,4909.905 7984.515,4900.627 7984.515,4890.471C7984.515,4881.226 7986.631,4872.665 7990.863,4864.787C7995.094,4856.91 8000.856,4850.367 8008.148,4845.158C8013.616,4841.122 8021.071,4837.704 8030.511,4834.905C8039.951,4832.105 8050.075,4830.705 8060.882,4830.705C8077.158,4830.705 8091.449,4833.049 8103.753,4837.737C8116.058,4842.424 8125.14,4848.772 8130.999,4856.78C8136.859,4864.787 8140.895,4875.497 8143.109,4888.908L8108.734,4893.596C8107.171,4882.919 8102.646,4874.586 8095.159,4868.596C8087.672,4862.606 8077.093,4859.612 8063.421,4859.612C8047.275,4859.612 8035.752,4862.281 8028.851,4867.619C8021.95,4872.958 8018.499,4879.208 8018.499,4886.369C8018.499,4890.927 8019.932,4895.028 8022.796,4898.674C8025.661,4902.45 8030.153,4905.575 8036.273,4908.049C8039.788,4909.351 8050.14,4912.346 8067.327,4917.033C8092.197,4923.674 8109.547,4929.11 8119.378,4933.342C8129.209,4937.574 8136.924,4943.726 8142.523,4951.799C8148.122,4959.872 8150.921,4969.898 8150.921,4981.877C8150.921,4993.596 8147.503,5004.631 8140.667,5014.983C8133.831,5025.334 8123.968,5033.342 8111.077,5039.006C8098.187,5044.67 8083.603,5047.502 8067.327,5047.502C8040.374,5047.502 8019.834,5041.903 8005.706,5030.705C7991.579,5019.507 7982.562,5002.906 7978.656,4980.901Z" style="fill:rgb(32,32,32);fill-rule:nonzero;"/>
                    <path d="M8192.718,5042.815L8192.718,4756.487L8227.874,4756.487L8227.874,4859.221C8244.281,4840.211 8264.984,4830.705 8289.984,4830.705C8305.348,4830.705 8318.695,4833.733 8330.023,4839.787C8341.351,4845.842 8349.456,4854.208 8354.339,4864.885C8359.222,4875.562 8361.663,4891.057 8361.663,4911.369L8361.663,5042.815L8326.507,5042.815L8326.507,4911.369C8326.507,4893.791 8322.699,4880.998 8315.081,4872.99C8307.464,4864.983 8296.689,4860.979 8282.757,4860.979C8272.34,4860.979 8262.542,4863.681 8253.363,4869.084C8244.183,4874.488 8237.64,4881.812 8233.734,4891.057C8229.827,4900.302 8227.874,4913.062 8227.874,4929.338L8227.874,5042.815L8192.718,5042.815Z" style="fill:rgb(32,32,32);fill-rule:nonzero;"/>
                    <rect x="8525.531" y="4756.487" width="35.156" height="286.328" style="fill:rgb(32,32,32);fill-rule:nonzero;"/>
                    <path d="M8615.374,4796.916L8615.374,4756.487L8650.531,4756.487L8650.531,4796.916L8615.374,4796.916ZM8615.374,5042.815L8615.374,4835.393L8650.531,4835.393L8650.531,5042.815L8615.374,5042.815Z" style="fill:rgb(32,32,32);fill-rule:nonzero;"/>
                    <path d="M8780.804,5011.369L8785.882,5042.424C8775.986,5044.507 8767.132,5045.549 8759.32,5045.549C8746.559,5045.549 8736.663,5043.531 8729.632,5039.494C8722.601,5035.458 8717.653,5030.152 8714.788,5023.576C8711.924,5017.001 8710.491,5003.166 8710.491,4982.073L8710.491,4862.737L8684.71,4862.737L8684.71,4835.393L8710.491,4835.393L8710.491,4784.026L8745.452,4762.932L8745.452,4835.393L8780.804,4835.393L8780.804,4862.737L8745.452,4862.737L8745.452,4984.026C8745.452,4994.052 8746.071,5000.497 8747.308,5003.362C8748.545,5006.226 8750.563,5008.505 8753.363,5010.198C8756.162,5011.89 8760.166,5012.737 8765.374,5012.737C8769.281,5012.737 8774.424,5012.281 8780.804,5011.369Z" style="fill:rgb(32,32,32);fill-rule:nonzero;"/>
                    <path d="M8957.171,4976.018L8993.499,4980.51C8987.77,5001.734 8977.158,5018.205 8961.663,5029.924C8946.169,5041.643 8926.377,5047.502 8902.288,5047.502C8871.95,5047.502 8847.894,5038.16 8830.12,5019.475C8812.347,5000.79 8803.46,4974.586 8803.46,4940.862C8803.46,4905.966 8812.445,4878.882 8830.413,4859.612C8848.382,4840.341 8871.689,4830.705 8900.335,4830.705C8928.07,4830.705 8950.726,4840.145 8968.304,4859.026C8985.882,4877.906 8994.671,4904.468 8994.671,4938.713C8994.671,4940.796 8994.606,4943.921 8994.476,4948.088L8839.788,4948.088C8841.09,4970.875 8847.536,4988.323 8859.124,5000.432C8870.713,5012.541 8885.166,5018.596 8902.484,5018.596C8915.374,5018.596 8926.377,5015.211 8935.491,5008.44C8944.606,5001.669 8951.833,4990.862 8957.171,4976.018ZM8841.741,4919.182L8957.562,4919.182C8955.999,4901.734 8951.572,4888.648 8944.281,4879.924C8933.083,4866.382 8918.564,4859.612 8900.726,4859.612C8884.58,4859.612 8871.006,4865.015 8860.003,4875.823C8849.001,4886.63 8842.913,4901.083 8841.741,4919.182Z" style="fill:rgb(32,32,32);fill-rule:nonzero;"/>
                    <path d="M9037.249,5042.815L9037.249,4835.393L9068.89,4835.393L9068.89,4866.838C9076.963,4852.125 9084.417,4842.424 9091.253,4837.737C9098.089,4833.049 9105.609,4830.705 9113.812,4830.705C9125.661,4830.705 9137.705,4834.481 9149.945,4842.033L9137.835,4874.651C9129.241,4869.573 9120.648,4867.033 9112.054,4867.033C9104.372,4867.033 9097.471,4869.345 9091.351,4873.967C9085.231,4878.589 9080.869,4885.002 9078.265,4893.205C9074.359,4905.705 9072.406,4919.377 9072.406,4934.221L9072.406,5042.815L9037.249,5042.815Z" style="fill:rgb(32,32,32);fill-rule:nonzero;"/>
                    <path d="M9306.195,5017.229C9293.174,5028.296 9280.641,5036.109 9268.597,5040.666C9256.553,5045.224 9243.63,5047.502 9229.827,5047.502C9207.041,5047.502 9189.528,5041.936 9177.288,5030.803C9165.049,5019.67 9158.929,5005.445 9158.929,4988.127C9158.929,4977.971 9161.24,4968.694 9165.863,4960.295C9170.485,4951.897 9176.54,4945.158 9184.027,4940.08C9191.514,4935.002 9199.945,4931.161 9209.32,4928.557C9216.221,4926.734 9226.637,4924.976 9240.57,4923.283C9268.955,4919.898 9289.853,4915.862 9303.265,4911.174C9303.395,4906.356 9303.46,4903.296 9303.46,4901.994C9303.46,4887.671 9300.14,4877.58 9293.499,4871.721C9284.515,4863.778 9271.169,4859.807 9253.46,4859.807C9236.924,4859.807 9224.717,4862.704 9216.839,4868.498C9208.962,4874.293 9203.135,4884.546 9199.359,4899.26L9164.984,4894.573C9168.109,4879.859 9173.252,4867.977 9180.413,4858.928C9187.575,4849.879 9197.926,4842.912 9211.468,4838.03C9225.01,4833.147 9240.7,4830.705 9258.538,4830.705C9276.247,4830.705 9290.635,4832.789 9301.702,4836.955C9312.77,4841.122 9320.908,4846.363 9326.116,4852.678C9331.325,4858.993 9334.971,4866.968 9337.054,4876.604C9338.226,4882.593 9338.812,4893.401 9338.812,4909.026L9338.812,4955.901C9338.812,4988.583 9339.561,5009.254 9341.058,5017.912C9342.555,5026.571 9345.518,5034.872 9349.945,5042.815L9313.226,5042.815C9309.58,5035.523 9307.236,5026.994 9306.195,5017.229ZM9303.265,4938.713C9290.505,4943.921 9271.364,4948.349 9245.843,4951.994C9231.39,4954.078 9221.169,4956.421 9215.179,4959.026C9209.189,4961.63 9204.567,4965.438 9201.312,4970.451C9198.057,4975.464 9196.429,4981.031 9196.429,4987.151C9196.429,4996.526 9199.977,5004.338 9207.074,5010.588C9214.17,5016.838 9224.554,5019.963 9238.226,5019.963C9251.768,5019.963 9263.812,5017.001 9274.359,5011.076C9284.906,5005.152 9292.653,4997.046 9297.601,4986.76C9301.377,4978.817 9303.265,4967.099 9303.265,4951.604L9303.265,4938.713Z" style="fill:rgb(32,32,32);fill-rule:nonzero;"/>
                    <path d="M9470.062,5011.369L9475.14,5042.424C9465.244,5044.507 9456.39,5045.549 9448.577,5045.549C9435.817,5045.549 9425.921,5043.531 9418.89,5039.494C9411.859,5035.458 9406.911,5030.152 9404.046,5023.576C9401.182,5017.001 9399.749,5003.166 9399.749,4982.073L9399.749,4862.737L9373.968,4862.737L9373.968,4835.393L9399.749,4835.393L9399.749,4784.026L9434.71,4762.932L9434.71,4835.393L9470.062,4835.393L9470.062,4862.737L9434.71,4862.737L9434.71,4984.026C9434.71,4994.052 9435.329,5000.497 9436.566,5003.362C9437.803,5006.226 9439.821,5008.505 9442.62,5010.198C9445.42,5011.89 9449.424,5012.737 9454.632,5012.737C9458.538,5012.737 9463.682,5012.281 9470.062,5011.369Z" style="fill:rgb(32,32,32);fill-rule:nonzero;"/>
                    <path d="M9640.374,5042.815L9640.374,5012.346C9624.228,5035.783 9602.288,5047.502 9574.554,5047.502C9562.314,5047.502 9550.889,5045.158 9540.277,5040.471C9529.665,5035.783 9521.787,5029.892 9516.644,5022.795C9511.501,5015.699 9507.887,5007.007 9505.804,4996.721C9504.372,4989.82 9503.656,4978.882 9503.656,4963.908L9503.656,4835.393L9538.812,4835.393L9538.812,4950.432C9538.812,4968.791 9539.528,4981.161 9540.96,4987.541C9543.174,4996.786 9547.861,5004.045 9555.023,5009.319C9562.184,5014.592 9571.038,5017.229 9581.585,5017.229C9592.132,5017.229 9602.028,5014.527 9611.273,5009.123C9620.518,5003.72 9627.061,4996.363 9630.902,4987.053C9634.743,4977.743 9636.663,4964.234 9636.663,4946.526L9636.663,4835.393L9671.82,4835.393L9671.82,5042.815L9640.374,5042.815Z" style="fill:rgb(32,32,32);fill-rule:nonzero;"/>
                    <path d="M9726.507,5042.815L9726.507,4835.393L9758.148,4835.393L9758.148,4866.838C9766.221,4852.125 9773.675,4842.424 9780.511,4837.737C9787.347,4833.049 9794.866,4830.705 9803.07,4830.705C9814.919,4830.705 9826.963,4834.481 9839.202,4842.033L9827.093,4874.651C9818.499,4869.573 9809.906,4867.033 9801.312,4867.033C9793.63,4867.033 9786.728,4869.345 9780.609,4873.967C9774.489,4878.589 9770.127,4885.002 9767.523,4893.205C9763.616,4905.705 9761.663,4919.377 9761.663,4934.221L9761.663,5042.815L9726.507,5042.815Z" style="fill:rgb(32,32,32);fill-rule:nonzero;"/>
                    <path d="M10002.093,4976.018L10038.421,4980.51C10032.692,5001.734 10022.08,5018.205 10006.585,5029.924C9991.09,5041.643 9971.299,5047.502 9947.21,5047.502C9916.872,5047.502 9892.816,5038.16 9875.042,5019.475C9857.269,5000.79 9848.382,4974.586 9848.382,4940.862C9848.382,4905.966 9857.366,4878.882 9875.335,4859.612C9893.304,4840.341 9916.611,4830.705 9945.257,4830.705C9972.991,4830.705 9995.648,4840.145 10013.226,4859.026C10030.804,4877.906 10039.593,4904.468 10039.593,4938.713C10039.593,4940.796 10039.528,4943.921 10039.398,4948.088L9884.71,4948.088C9886.012,4970.875 9892.458,4988.323 9904.046,5000.432C9915.635,5012.541 9930.088,5018.596 9947.406,5018.596C9960.296,5018.596 9971.299,5015.211 9980.413,5008.44C9989.528,5001.669 9996.755,4990.862 10002.093,4976.018ZM9886.663,4919.182L10002.484,4919.182C10000.921,4901.734 9996.494,4888.648 9989.202,4879.924C9978.005,4866.382 9963.486,4859.612 9945.648,4859.612C9929.502,4859.612 9915.928,4865.015 9904.925,4875.823C9893.922,4886.63 9887.835,4901.083 9886.663,4919.182Z" style="fill:rgb(32,32,32);fill-rule:nonzero;"/>
                    <path d="M7245.257,5485.979L7281.585,5490.471C7275.856,5511.695 7265.244,5528.166 7249.749,5539.885C7234.255,5551.604 7214.463,5557.463 7190.374,5557.463C7160.036,5557.463 7135.98,5548.121 7118.206,5529.436C7100.433,5510.751 7091.546,5484.546 7091.546,5450.823C7091.546,5415.927 7100.531,5388.843 7118.499,5369.573C7136.468,5350.302 7159.775,5340.666 7188.421,5340.666C7216.156,5340.666 7238.812,5350.106 7256.39,5368.987C7273.968,5387.867 7282.757,5414.429 7282.757,5448.674C7282.757,5450.757 7282.692,5453.882 7282.562,5458.049L7127.874,5458.049C7129.176,5480.836 7135.622,5498.283 7147.21,5510.393C7158.799,5522.502 7173.252,5528.557 7190.57,5528.557C7203.46,5528.557 7214.463,5525.171 7223.577,5518.401C7232.692,5511.63 7239.919,5500.823 7245.257,5485.979ZM7129.827,5429.143L7245.648,5429.143C7244.085,5411.695 7239.658,5398.609 7232.366,5389.885C7221.169,5376.343 7206.65,5369.573 7188.812,5369.573C7172.666,5369.573 7159.092,5374.976 7148.089,5385.783C7137.087,5396.591 7130.999,5411.044 7129.827,5429.143Z" style="fill:rgb(32,32,32);fill-rule:nonzero;"/>
                    <path d="M7302.288,5552.776L7378.07,5444.963L7307.952,5345.354L7351.898,5345.354L7383.734,5393.987C7389.723,5403.231 7394.541,5410.979 7398.187,5417.229C7403.916,5408.635 7409.189,5401.018 7414.007,5394.377L7448.968,5345.354L7490.96,5345.354L7419.281,5443.01L7496.429,5552.776L7453.265,5552.776L7410.687,5488.323L7399.359,5470.94L7344.866,5552.776L7302.288,5552.776Z" style="fill:rgb(32,32,32);fill-rule:nonzero;"/>
                    <path d="M7661.077,5527.19C7648.057,5538.257 7635.524,5546.07 7623.48,5550.627C7611.436,5555.184 7598.512,5557.463 7584.71,5557.463C7561.924,5557.463 7544.411,5551.897 7532.171,5540.764C7519.932,5529.631 7513.812,5515.406 7513.812,5498.088C7513.812,5487.932 7516.123,5478.655 7520.745,5470.256C7525.368,5461.858 7531.422,5455.119 7538.909,5450.041C7546.396,5444.963 7554.827,5441.122 7564.202,5438.518C7571.103,5436.695 7581.52,5434.937 7595.452,5433.244C7623.838,5429.859 7644.736,5425.823 7658.148,5421.135C7658.278,5416.317 7658.343,5413.257 7658.343,5411.955C7658.343,5397.632 7655.023,5387.541 7648.382,5381.682C7639.398,5373.739 7626.051,5369.768 7608.343,5369.768C7591.807,5369.768 7579.6,5372.665 7571.722,5378.459C7563.844,5384.254 7558.018,5394.507 7554.241,5409.221L7519.866,5404.533C7522.991,5389.82 7528.135,5377.938 7535.296,5368.889C7542.458,5359.839 7552.809,5352.873 7566.351,5347.99C7579.893,5343.108 7595.583,5340.666 7613.421,5340.666C7631.13,5340.666 7645.518,5342.75 7656.585,5346.916C7667.653,5351.083 7675.791,5356.324 7680.999,5362.639C7686.208,5368.954 7689.853,5376.929 7691.937,5386.565C7693.109,5392.554 7693.695,5403.362 7693.695,5418.987L7693.695,5465.862C7693.695,5498.544 7694.443,5519.214 7695.941,5527.873C7697.438,5536.532 7700.4,5544.833 7704.827,5552.776L7668.109,5552.776C7664.463,5545.484 7662.119,5536.955 7661.077,5527.19ZM7658.148,5448.674C7645.387,5453.882 7626.247,5458.309 7600.726,5461.955C7586.273,5464.039 7576.051,5466.382 7570.062,5468.987C7564.072,5471.591 7559.45,5475.399 7556.195,5480.412C7552.939,5485.425 7551.312,5490.992 7551.312,5497.112C7551.312,5506.487 7554.86,5514.299 7561.956,5520.549C7569.053,5526.799 7579.437,5529.924 7593.109,5529.924C7606.65,5529.924 7618.695,5526.962 7629.241,5521.037C7639.788,5515.113 7647.536,5507.007 7652.484,5496.721C7656.26,5488.778 7658.148,5477.059 7658.148,5461.565L7658.148,5448.674Z" style="fill:rgb(32,32,32);fill-rule:nonzero;"/>
                    <path d="M7748.187,5552.776L7748.187,5345.354L7779.632,5345.354L7779.632,5374.455C7786.143,5364.299 7794.801,5356.129 7805.609,5349.944C7816.416,5343.759 7828.721,5340.666 7842.523,5340.666C7857.887,5340.666 7870.485,5343.856 7880.316,5350.237C7890.146,5356.617 7897.08,5365.536 7901.116,5376.994C7917.523,5352.776 7938.877,5340.666 7965.179,5340.666C7985.752,5340.666 8001.572,5346.363 8012.64,5357.756C8023.708,5369.149 8029.241,5386.695 8029.241,5410.393L8029.241,5552.776L7994.281,5552.776L7994.281,5422.112C7994.281,5408.049 7993.141,5397.925 7990.863,5391.74C7988.584,5385.556 7984.45,5380.575 7978.46,5376.799C7972.471,5373.023 7965.439,5371.135 7957.366,5371.135C7942.783,5371.135 7930.674,5375.985 7921.038,5385.686C7911.403,5395.386 7906.585,5410.914 7906.585,5432.268L7906.585,5552.776L7871.429,5552.776L7871.429,5418.01C7871.429,5402.385 7868.564,5390.666 7862.835,5382.854C7857.106,5375.041 7847.731,5371.135 7834.71,5371.135C7824.814,5371.135 7815.667,5373.739 7807.269,5378.948C7798.87,5384.156 7792.783,5391.773 7789.007,5401.799C7785.231,5411.825 7783.343,5426.278 7783.343,5445.158L7783.343,5552.776L7748.187,5552.776Z" style="fill:rgb(32,32,32);fill-rule:nonzero;"/>
                    <path d="M8192.132,5552.776L8192.132,5345.354L8223.773,5345.354L8223.773,5376.799C8231.846,5362.086 8239.3,5352.385 8246.136,5347.698C8252.972,5343.01 8260.491,5340.666 8268.695,5340.666C8280.544,5340.666 8292.588,5344.442 8304.827,5351.994L8292.718,5384.612C8284.124,5379.533 8275.531,5376.994 8266.937,5376.994C8259.255,5376.994 8252.353,5379.306 8246.234,5383.928C8240.114,5388.55 8235.752,5394.963 8233.148,5403.166C8229.241,5415.666 8227.288,5429.338 8227.288,5444.182L8227.288,5552.776L8192.132,5552.776Z" style="fill:rgb(32,32,32);fill-rule:nonzero;"/>
                    <path d="M8467.718,5485.979L8504.046,5490.471C8498.317,5511.695 8487.705,5528.166 8472.21,5539.885C8456.715,5551.604 8436.924,5557.463 8412.835,5557.463C8382.497,5557.463 8358.441,5548.121 8340.667,5529.436C8322.894,5510.751 8314.007,5484.546 8314.007,5450.823C8314.007,5415.927 8322.991,5388.843 8340.96,5369.573C8358.929,5350.302 8382.236,5340.666 8410.882,5340.666C8438.616,5340.666 8461.273,5350.106 8478.851,5368.987C8496.429,5387.867 8505.218,5414.429 8505.218,5448.674C8505.218,5450.757 8505.153,5453.882 8505.023,5458.049L8350.335,5458.049C8351.637,5480.836 8358.083,5498.283 8369.671,5510.393C8381.26,5522.502 8395.713,5528.557 8413.031,5528.557C8425.921,5528.557 8436.924,5525.171 8446.038,5518.401C8455.153,5511.63 8462.38,5500.823 8467.718,5485.979ZM8352.288,5429.143L8468.109,5429.143C8466.546,5411.695 8462.119,5398.609 8454.827,5389.885C8443.63,5376.343 8429.111,5369.573 8411.273,5369.573C8395.127,5369.573 8381.553,5374.976 8370.55,5385.783C8359.547,5396.591 8353.46,5411.044 8352.288,5429.143Z" style="fill:rgb(32,32,32);fill-rule:nonzero;"/>
                    <path d="M8605.804,5552.776L8526.898,5345.354L8564.007,5345.354L8608.538,5469.573C8613.356,5482.984 8617.783,5496.916 8621.82,5511.369C8624.945,5500.432 8629.307,5487.281 8634.906,5471.916L8680.999,5345.354L8717.132,5345.354L8638.616,5552.776L8605.804,5552.776Z" style="fill:rgb(32,32,32);fill-rule:nonzero;"/>
                    <path d="M8748.382,5306.877L8748.382,5266.448L8783.538,5266.448L8783.538,5306.877L8748.382,5306.877ZM8748.382,5552.776L8748.382,5345.354L8783.538,5345.354L8783.538,5552.776L8748.382,5552.776Z" style="fill:rgb(32,32,32);fill-rule:nonzero;"/>
                    <path d="M8822.991,5490.862L8857.757,5485.393C8859.71,5499.325 8865.146,5510.002 8874.066,5517.424C8882.985,5524.846 8895.452,5528.557 8911.468,5528.557C8927.614,5528.557 8939.593,5525.269 8947.406,5518.694C8955.218,5512.118 8959.124,5504.403 8959.124,5495.549C8959.124,5487.606 8955.674,5481.356 8948.773,5476.799C8943.955,5473.674 8931.976,5469.703 8912.835,5464.885C8887.054,5458.375 8869.183,5452.743 8859.222,5447.99C8849.261,5443.238 8841.709,5436.662 8836.566,5428.264C8831.422,5419.865 8828.851,5410.588 8828.851,5400.432C8828.851,5391.187 8830.967,5382.626 8835.199,5374.748C8839.43,5366.871 8845.192,5360.328 8852.484,5355.119C8857.952,5351.083 8865.407,5347.665 8874.847,5344.865C8884.287,5342.066 8894.411,5340.666 8905.218,5340.666C8921.494,5340.666 8935.784,5343.01 8948.089,5347.698C8960.394,5352.385 8969.476,5358.733 8975.335,5366.74C8981.195,5374.748 8985.231,5385.458 8987.445,5398.869L8953.07,5403.557C8951.507,5392.88 8946.982,5384.546 8939.495,5378.557C8932.008,5372.567 8921.429,5369.573 8907.757,5369.573C8891.611,5369.573 8880.088,5372.242 8873.187,5377.58C8866.286,5382.919 8862.835,5389.169 8862.835,5396.33C8862.835,5400.888 8864.268,5404.989 8867.132,5408.635C8869.997,5412.411 8874.489,5415.536 8880.609,5418.01C8884.124,5419.312 8894.476,5422.307 8911.663,5426.994C8936.533,5433.635 8953.883,5439.071 8963.714,5443.303C8973.545,5447.535 8981.26,5453.687 8986.859,5461.76C8992.458,5469.833 8995.257,5479.859 8995.257,5491.838C8995.257,5503.557 8991.839,5514.592 8985.003,5524.944C8978.167,5535.295 8968.304,5543.303 8955.413,5548.967C8942.523,5554.631 8927.939,5557.463 8911.663,5557.463C8884.71,5557.463 8864.17,5551.864 8850.042,5540.666C8835.915,5529.468 8826.898,5512.867 8822.991,5490.862Z" style="fill:rgb(32,32,32);fill-rule:nonzero;"/>
                    <path d="M9037.249,5306.877L9037.249,5266.448L9072.406,5266.448L9072.406,5306.877L9037.249,5306.877ZM9037.249,5552.776L9037.249,5345.354L9072.406,5345.354L9072.406,5552.776L9037.249,5552.776Z" style="fill:rgb(32,32,32);fill-rule:nonzero;"/>
                    <path d="M9112.835,5449.065C9112.835,5410.653 9123.512,5382.203 9144.866,5363.713C9162.705,5348.349 9184.45,5340.666 9210.101,5340.666C9238.616,5340.666 9261.924,5350.009 9280.023,5368.694C9298.122,5387.379 9307.171,5413.192 9307.171,5446.135C9307.171,5472.828 9303.167,5493.824 9295.159,5509.123C9287.152,5524.423 9275.498,5536.304 9260.199,5544.768C9244.899,5553.231 9228.2,5557.463 9210.101,5557.463C9181.064,5557.463 9157.594,5548.153 9139.691,5529.533C9121.787,5510.914 9112.835,5484.091 9112.835,5449.065ZM9148.968,5449.065C9148.968,5475.627 9154.762,5495.517 9166.351,5508.733C9177.939,5521.949 9192.523,5528.557 9210.101,5528.557C9227.549,5528.557 9242.067,5521.916 9253.656,5508.635C9265.244,5495.354 9271.038,5475.106 9271.038,5447.893C9271.038,5422.242 9265.212,5402.808 9253.558,5389.592C9241.904,5376.376 9227.419,5369.768 9210.101,5369.768C9192.523,5369.768 9177.939,5376.343 9166.351,5389.494C9154.762,5402.645 9148.968,5422.502 9148.968,5449.065Z" style="fill:rgb(32,32,32);fill-rule:nonzero;"/>
                    <path d="M9348.382,5552.776L9348.382,5345.354L9380.023,5345.354L9380.023,5374.846C9395.257,5352.059 9417.262,5340.666 9446.038,5340.666C9458.538,5340.666 9470.029,5342.912 9480.511,5347.405C9490.993,5351.897 9498.838,5357.789 9504.046,5365.08C9509.255,5372.372 9512.9,5381.031 9514.984,5391.057C9516.286,5397.567 9516.937,5408.961 9516.937,5425.237L9516.937,5552.776L9481.781,5552.776L9481.781,5426.604C9481.781,5412.281 9480.413,5401.571 9477.679,5394.475C9474.945,5387.379 9470.094,5381.714 9463.128,5377.483C9456.162,5373.251 9447.991,5371.135 9438.616,5371.135C9423.643,5371.135 9410.719,5375.888 9399.847,5385.393C9388.975,5394.898 9383.538,5412.932 9383.538,5439.494L9383.538,5552.776L9348.382,5552.776Z" style="fill:rgb(32,32,32);fill-rule:nonzero;"/>
                    <path d="M9681.976,5632.268L9681.976,5345.354L9714.007,5345.354L9714.007,5372.307C9721.559,5361.76 9730.088,5353.85 9739.593,5348.576C9749.098,5343.303 9760.622,5340.666 9774.163,5340.666C9791.872,5340.666 9807.497,5345.224 9821.038,5354.338C9834.58,5363.453 9844.801,5376.311 9851.702,5392.912C9858.603,5409.514 9862.054,5427.711 9862.054,5447.502C9862.054,5468.726 9858.245,5487.834 9850.628,5504.826C9843.011,5521.819 9831.943,5534.839 9817.425,5543.889C9802.907,5552.938 9787.64,5557.463 9771.624,5557.463C9759.906,5557.463 9749.391,5554.989 9740.081,5550.041C9730.771,5545.093 9723.122,5538.843 9717.132,5531.291L9717.132,5632.268L9681.976,5632.268ZM9713.812,5450.237C9713.812,5476.929 9719.215,5496.656 9730.023,5509.416C9740.83,5522.177 9753.916,5528.557 9769.281,5528.557C9784.906,5528.557 9798.284,5521.949 9809.417,5508.733C9820.55,5495.517 9826.116,5475.041 9826.116,5447.307C9826.116,5420.875 9820.68,5401.083 9809.808,5387.932C9798.936,5374.781 9785.947,5368.205 9770.843,5368.205C9755.869,5368.205 9742.62,5375.204 9731.097,5389.201C9719.574,5403.199 9713.812,5423.544 9713.812,5450.237Z" style="fill:rgb(32,32,32);fill-rule:nonzero;"/>
                    <path d="M9891.351,5449.065C9891.351,5410.653 9902.028,5382.203 9923.382,5363.713C9941.221,5348.349 9962.965,5340.666 9988.616,5340.666C10017.132,5340.666 10040.439,5350.009 10058.538,5368.694C10076.637,5387.379 10085.687,5413.192 10085.687,5446.135C10085.687,5472.828 10081.683,5493.824 10073.675,5509.123C10065.667,5524.423 10054.014,5536.304 10038.714,5544.768C10023.415,5553.231 10006.715,5557.463 9988.616,5557.463C9959.58,5557.463 9936.11,5548.153 9918.206,5529.533C9900.303,5510.914 9891.351,5484.091 9891.351,5449.065ZM9927.484,5449.065C9927.484,5475.627 9933.278,5495.517 9944.866,5508.733C9956.455,5521.949 9971.038,5528.557 9988.616,5528.557C10006.064,5528.557 10020.583,5521.916 10032.171,5508.635C10043.76,5495.354 10049.554,5475.106 10049.554,5447.893C10049.554,5422.242 10043.727,5402.808 10032.074,5389.592C10020.42,5376.376 10005.934,5369.768 9988.616,5369.768C9971.038,5369.768 9956.455,5376.343 9944.866,5389.494C9933.278,5402.645 9927.484,5422.502 9927.484,5449.065Z" style="fill:rgb(32,32,32);fill-rule:nonzero;"/>
                    <path d="M10126.507,5552.776L10126.507,5345.354L10158.148,5345.354L10158.148,5376.799C10166.221,5362.086 10173.675,5352.385 10180.511,5347.698C10187.347,5343.01 10194.866,5340.666 10203.07,5340.666C10214.919,5340.666 10226.963,5344.442 10239.202,5351.994L10227.093,5384.612C10218.499,5379.533 10209.906,5376.994 10201.312,5376.994C10193.63,5376.994 10186.728,5379.306 10180.609,5383.928C10174.489,5388.55 10170.127,5394.963 10167.523,5403.166C10163.616,5415.666 10161.663,5429.338 10161.663,5444.182L10161.663,5552.776L10126.507,5552.776Z" style="fill:rgb(32,32,32);fill-rule:nonzero;"/>
                    <path d="M10336.859,5521.33L10341.937,5552.385C10332.041,5554.468 10323.187,5555.51 10315.374,5555.51C10302.614,5555.51 10292.718,5553.492 10285.687,5549.455C10278.656,5545.419 10273.708,5540.113 10270.843,5533.537C10267.978,5526.962 10266.546,5513.127 10266.546,5492.033L10266.546,5372.698L10240.765,5372.698L10240.765,5345.354L10266.546,5345.354L10266.546,5293.987L10301.507,5272.893L10301.507,5345.354L10336.859,5345.354L10336.859,5372.698L10301.507,5372.698L10301.507,5493.987C10301.507,5504.013 10302.126,5510.458 10303.363,5513.323C10304.6,5516.187 10306.618,5518.466 10309.417,5520.158C10312.217,5521.851 10316.221,5522.698 10321.429,5522.698C10325.335,5522.698 10330.478,5522.242 10336.859,5521.33Z" style="fill:rgb(32,32,32);fill-rule:nonzero;"/>
                    <path d="M10506.585,5527.19C10493.564,5538.257 10481.032,5546.07 10468.988,5550.627C10456.943,5555.184 10444.02,5557.463 10430.218,5557.463C10407.432,5557.463 10389.919,5551.897 10377.679,5540.764C10365.439,5529.631 10359.32,5515.406 10359.32,5498.088C10359.32,5487.932 10361.631,5478.655 10366.253,5470.256C10370.876,5461.858 10376.93,5455.119 10384.417,5450.041C10391.904,5444.963 10400.335,5441.122 10409.71,5438.518C10416.611,5436.695 10427.028,5434.937 10440.96,5433.244C10469.346,5429.859 10490.244,5425.823 10503.656,5421.135C10503.786,5416.317 10503.851,5413.257 10503.851,5411.955C10503.851,5397.632 10500.531,5387.541 10493.89,5381.682C10484.906,5373.739 10471.559,5369.768 10453.851,5369.768C10437.314,5369.768 10425.107,5372.665 10417.23,5378.459C10409.352,5384.254 10403.525,5394.507 10399.749,5409.221L10365.374,5404.533C10368.499,5389.82 10373.643,5377.938 10380.804,5368.889C10387.965,5359.839 10398.317,5352.873 10411.859,5347.99C10425.4,5343.108 10441.09,5340.666 10458.929,5340.666C10476.637,5340.666 10491.025,5342.75 10502.093,5346.916C10513.161,5351.083 10521.299,5356.324 10526.507,5362.639C10531.715,5368.954 10535.361,5376.929 10537.445,5386.565C10538.616,5392.554 10539.202,5403.362 10539.202,5418.987L10539.202,5465.862C10539.202,5498.544 10539.951,5519.214 10541.449,5527.873C10542.946,5536.532 10545.908,5544.833 10550.335,5552.776L10513.616,5552.776C10509.971,5545.484 10507.627,5536.955 10506.585,5527.19ZM10503.656,5448.674C10490.895,5453.882 10471.755,5458.309 10446.234,5461.955C10431.781,5464.039 10421.559,5466.382 10415.57,5468.987C10409.58,5471.591 10404.958,5475.399 10401.702,5480.412C10398.447,5485.425 10396.82,5490.992 10396.82,5497.112C10396.82,5506.487 10400.368,5514.299 10407.464,5520.549C10414.561,5526.799 10424.945,5529.924 10438.616,5529.924C10452.158,5529.924 10464.202,5526.962 10474.749,5521.037C10485.296,5515.113 10493.044,5507.007 10497.991,5496.721C10501.768,5488.778 10503.656,5477.059 10503.656,5461.565L10503.656,5448.674Z" style="fill:rgb(32,32,32);fill-rule:nonzero;"/>
                    <rect x="10592.913" y="5266.448" width="35.156" height="286.328" style="fill:rgb(32,32,32);fill-rule:nonzero;"/>
                </g>
            </g>
        </g>
    </g>
</svg>
